<svg version="1.1" id="レイヤー_1" xmlns="http://www.w3.org/2000/svg" xmlns:xlink="http://www.w3.org/1999/xlink" x="0px"
	 y="0px" viewBox="0 0 40 40" style="enable-background:new 0 0 40 40;" xml:space="preserve">
<style type="text/css">
	.st0{clip-path:url(#SVGID_00000079458631188017939780000003197338423487970444_);}
	.st1{fill:#090405;}
</style>
<g id="グループ_9024" transform="translate(13 2764.5)">
	<g id="グループ_9021" transform="translate(159.01 3623.771)">
		<g>
			<defs>
				<rect id="SVGID_1_" x="-155" y="-6372.5" width="16.4" height="13.7"/>
			</defs>
			<clipPath id="SVGID_00000132088822122601222480000017568813068056614532_">
				<use xlink:href="#SVGID_1_"  style="overflow:visible;"/>
			</clipPath>
			
				<g id="グループ_9020-2" transform="translate(0 0)" style="clip-path:url(#SVGID_00000132088822122601222480000017568813068056614532_);">
				<path id="パス_6247-2" class="st1" d="M-141.6-6370.5l-0.5-2l-2.9,4.4h-2.9l0,0h-4c-0.2,0-0.4,0-0.5-0.1
					c-0.2-0.1-0.4-0.3-0.6-0.5c-0.2-0.2-0.4-0.5-0.6-0.7l-1.3,0.6c0.1,0.4,0.2,0.7,0.3,1.1c0.2,0.4,0.4,0.8,0.6,1.1
					c0.3,0.4,0.7,0.7,1.1,1c0.2,0.1,0.4,0.2,0.6,0.2v6.7h1.9l0.6-3.3h4.1l0.6,3.3h2l0.7-3.8l0,0l0.7-4l2.5,0l0.5-1L-141.6-6370.5z"
					/>
			</g>
		</g>
	</g>
	<g id="グループ_9023" transform="translate(121 -203.941)">
		<g id="グループ_9022" transform="translate(28 3821.118)">
			<path id="パス_6248" class="st1" d="M-149.8-6372.5l-0.7,20.3h2.7l-0.7-20.3H-149.8z"/>
			<path id="パス_6249" class="st1" d="M-149.1-6362.8l0.7,1.3l5.1-3l-0.5-0.9L-149.1-6362.8z"/>
			<path id="パス_6250" class="st1" d="M-155-6360.9l5.1,3l0.7-1.3l-5.3-2.6L-155-6360.9z"/>
			<path id="パス_6251" class="st1" d="M-155-6367.9l5.1,3l0.7-1.3l-5.3-2.6L-155-6367.9z"/>
		</g>
	</g>
</g>
</svg>
