<svg xmlns="http://www.w3.org/2000/svg" xmlns:xlink="http://www.w3.org/1999/xlink" width="20" height="20" viewBox="0 0 20 20">
  <defs>
    <clipPath id="clip-path">
      <circle id="楕円形_40" data-name="楕円形 40" cx="10" cy="10" r="10" transform="translate(357 2703)" fill="#be9424"/>
    </clipPath>
  </defs>
  <g id="グループ_8399" data-name="グループ 8399" transform="translate(-378 -2703)">
    <circle id="楕円形_34" data-name="楕円形 34" cx="10" cy="10" r="10" transform="translate(378 2703)" fill="#be9424"/>
    <g id="マスクグループ_5" data-name="マスクグループ 5" transform="translate(21)" clip-path="url(#clip-path)">
      <g id="スポーツシューズアイコン2" transform="translate(357 2703)">
        <g id="グループ_8392" data-name="グループ 8392" transform="translate(3.851 4.83)">
          <path id="パス_5990" data-name="パス 5990" d="M6.063,12.874.336,8.013,0,8.409,5.728,13.27h0a3.622,3.622,0,0,0,2.329.849h3.671V13.6H8.057A3.1,3.1,0,0,1,6.063,12.874Z" transform="translate(0 -4.241)" fill="#fff"/>
          <path id="パス_5991" data-name="パス 5991" d="M8.449,10.434H11.21c1.3,0,1.1-1.3.26-1.494a10.18,10.18,0,0,1-1.3-.434,1.1,1.1,0,0,1-.653-.583l-.085-.18-1.06.321a.219.219,0,1,1-.127-.419l1-.3-.291-.62-.991.3a.219.219,0,0,1-.127-.42l.93-.281L8.476,5.7l-.924.28a.219.219,0,1,1-.127-.42L8.291,5.3c-.124-.27-.214-.47-.238-.532-.1-.271-.333-1.022-.855-.6A2.092,2.092,0,0,1,4.37,3.9a2.163,2.163,0,0,1,0-1.645c.1-.381-.433-.974-.823-.455-.276.367-2.6,3.117-2.6,3.117l5.84,4.915A2.577,2.577,0,0,0,8.449,10.434Z" transform="translate(-0.391 -1.593)" fill="#fff"/>
        </g>
      </g>
    </g>
  </g>
</svg>
