<svg xmlns="http://www.w3.org/2000/svg" xmlns:xlink="http://www.w3.org/1999/xlink" width="39" height="40" viewBox="0 0 39 40">
  <defs>
    <clipPath id="clip-path">
      <rect id="長方形_23912" data-name="長方形 23912" width="16.37" height="13.727" fill="none"/>
    </clipPath>
  </defs>
  <g id="グループ_9922" data-name="グループ 9922" transform="translate(-148 -703)">
    <g id="グループ_9143" data-name="グループ 9143">
      <g id="グループ_9024" data-name="グループ 9024" transform="translate(7.292 -2900)">
        <g id="グループ_9021" data-name="グループ 9021" transform="translate(159.01 3623.771)">
          <g id="グループ_9020" data-name="グループ 9020" transform="translate(0 0)" clip-path="url(#clip-path)">
            <path id="パス_6247" data-name="パス 6247" d="M13.42,1.961,12.93,0,9.985,4.412H7.063l0,0-4.046,0A1,1,0,0,1,2.5,4.284a2.46,2.46,0,0,1-.59-.481A6.471,6.471,0,0,1,1.349,3.1L0,3.682A8.289,8.289,0,0,0,.336,4.749a4.621,4.621,0,0,0,.611,1.1,3.525,3.525,0,0,0,1.124.962,3.683,3.683,0,0,0,.566.247v6.671H4.587l.624-3.35h4.08l.623,3.35h2.029l.718-3.842h0l.745-4.005,2.466-.01.5-.967Z" transform="translate(0 0)" fill="#090405"/>
          </g>
        </g>
      </g>
      <g id="レイヤー_2" data-name="レイヤー 2" transform="translate(149 708.105)">
        <g id="waku">
          <rect id="長方形_23922" data-name="長方形 23922" width="25.487" height="25.487" fill="none"/>
        </g>
        <g id="編集モード" transform="translate(3.004 1.052)">
          <path id="パス_6366" data-name="パス 6366" d="M88.891,33.6a2.4,2.4,0,0,0-3.275-.868l.641,1.1a1.124,1.124,0,0,1,1.65,1.257,1.11,1.11,0,0,1-.371.573,2.709,2.709,0,0,0-.281-.245A2.664,2.664,0,0,0,85.27,34.9l.178,1.263a1.4,1.4,0,0,1,.389,2.783l.178,1.263a2.672,2.672,0,0,0,2.183-3.45A2.394,2.394,0,0,0,88.891,33.6Z" transform="translate(-69.108 -26.177)" fill="#040000"/>
          <path id="パス_6367" data-name="パス 6367" d="M36.8,7.56a1.18,1.18,0,0,1,1.657,1.418l1.212.4A2.439,2.439,0,0,0,39.52,7.5a2.472,2.472,0,0,0-.371-.535A2.138,2.138,0,0,1,43.092,8.01a2.65,2.65,0,0,0-1.389,2.8l1.256-.225a1.371,1.371,0,1,1,2.7-.465l1.256-.225a2.648,2.648,0,0,0-2.574-2.2,3.408,3.408,0,0,0-6.258-1.439A2.452,2.452,0,0,0,35,7.83l1.212.4A1.173,1.173,0,0,1,36.8,7.56Z" transform="translate(-30.137 -4.681)" fill="#040000"/>
          <path id="パス_6368" data-name="パス 6368" d="M15.226,25.364A1.256,1.256,0,0,1,17.44,24.24l1.025-.746a2.533,2.533,0,0,0-4.307,2.625,3.034,3.034,0,0,0,1.69,5.028l.225-1.252a1.763,1.763,0,1,1,.643-3.466l.225-1.252A3.014,3.014,0,0,0,15.226,25.364Z" transform="translate(-13.366 -18.477)" fill="#040000"/>
          <path id="パス_6369" data-name="パス 6369" d="M38.668,46.719c-.267-.917-1.47-4.482-.542-6.817a6.087,6.087,0,0,1,.9-1.432,16.664,16.664,0,0,1,1.762-1.782l-.787-1a18.051,18.051,0,0,0-2.142,1.7c-.211.2-.418.42-.616.652a10.115,10.115,0,0,1,.492-2.841,7.944,7.944,0,0,1,1.014-2.009,9.425,9.425,0,0,1,1.573-1.733l-.735-1.041a10.958,10.958,0,0,0-2.171,1.627A9.949,9.949,0,0,0,35.7,34.262a11.114,11.114,0,0,0-.6,1.256,11.851,11.851,0,0,0-.225-1.167,10.137,10.137,0,0,0-1.221-2.963A11.969,11.969,0,0,0,31.7,29l-.951.85a10.439,10.439,0,0,1,1.36,2.335A8.132,8.132,0,0,1,32.68,34.7a11.5,11.5,0,0,1-.047,1.971,10.317,10.317,0,0,0-1.155-1.51,21.3,21.3,0,0,0-2.1-1.96l-.865.935a19.9,19.9,0,0,1,1.733,2.023,8.031,8.031,0,0,1,1.029,1.866,9.387,9.387,0,0,1,.414,1.886c.031.3.049.6.061.913v.5a13.071,13.071,0,0,1-1.328,5.39Z" transform="translate(-25.106 -23.534)" fill="#040000"/>
        </g>
      </g>
    </g>
    <rect id="長方形_24208" data-name="長方形 24208" width="39" height="40" transform="translate(148 703)" fill="none"/>
  </g>
</svg>
