<svg xmlns="http://www.w3.org/2000/svg" xmlns:xlink="http://www.w3.org/1999/xlink" width="20" height="20" viewBox="0 0 20 20">
  <defs>
    <clipPath id="clip-path">
      <rect id="長方形_24498" data-name="長方形 24498" width="11.12" height="11.12" fill="#fff"/>
    </clipPath>
  </defs>
  <g id="グループ_10360" data-name="グループ 10360" transform="translate(-878 -3562)">
    <g id="グループ_10311" data-name="グループ 10311" transform="translate(0 43)">
      <g id="グループ_8407" data-name="グループ 8407" transform="translate(500 816)">
        <circle id="楕円形_34" data-name="楕円形 34" cx="10" cy="10" r="10" transform="translate(378 2703)" fill="#959595"/>
      </g>
      <g id="グループ_10310" data-name="グループ 10310" transform="translate(883 3523)">
        <g id="グループ_10309" data-name="グループ 10309" clip-path="url(#clip-path)">
          <path id="パス_8584" data-name="パス 8584" d="M5.468,137.425l-1.07-1.07c-.644.387-2.069,1.024-2.069,1.024a1.024,1.024,0,0,0-.616.764L.993,141.5l-.413.414a.573.573,0,1,0,.565.565l.414-.413,3.359-.721a1.024,1.024,0,0,0,.764-.616s.638-1.423,1.024-2.068l-1.07-1.07Zm-1.157,2.208a.625.625,0,1,1,0-.884.626.626,0,0,1,0,.884" transform="translate(0 -131.94)" fill="#fff"/>
          <path id="パス_8585" data-name="パス 8585" d="M143.989,70.459a.676.676,0,0,1-.593.181l-.31.309,1.093,1.094.247.247-.117-.117-.077-.077.077.077,1.471,1.471.309-.309a.677.677,0,0,1,.181-.593l1.057-1.057L145.045,69.4l-1.057,1.057" transform="translate(-138.453 -67.155)" fill="#fff"/>
          <path id="パス_8586" data-name="パス 8586" d="M215.79,1.813l2.32,2.32c.28-.28.975-.874,1.814-1.582L217.371,0c-.707.839-1.3,1.533-1.581,1.814" transform="translate(-208.803 0.001)" fill="#fff"/>
        </g>
      </g>
    </g>
    <circle id="楕円形_34-2" data-name="楕円形 34" cx="10" cy="10" r="10" transform="translate(878 3562)" fill="#56717e"/>
    <g id="グループ_10310-2" data-name="グループ 10310" transform="translate(883 3566)">
      <g id="グループ_10309-2" data-name="グループ 10309" clip-path="url(#clip-path)">
        <path id="パス_8584-2" data-name="パス 8584" d="M5.468,137.425l-1.07-1.07c-.644.387-2.069,1.024-2.069,1.024a1.024,1.024,0,0,0-.616.764L.993,141.5l-.413.414a.573.573,0,1,0,.565.565l.414-.413,3.359-.721a1.024,1.024,0,0,0,.764-.616s.638-1.423,1.024-2.068l-1.07-1.07Zm-1.157,2.208a.625.625,0,1,1,0-.884.626.626,0,0,1,0,.884" transform="translate(0 -131.94)" fill="#fff"/>
        <path id="パス_8585-2" data-name="パス 8585" d="M143.989,70.459a.676.676,0,0,1-.593.181l-.31.309,1.093,1.094.247.247-.117-.117-.077-.077.077.077,1.471,1.471.309-.309a.677.677,0,0,1,.181-.593l1.057-1.057L145.045,69.4l-1.057,1.057" transform="translate(-138.453 -67.155)" fill="#fff"/>
        <path id="パス_8586-2" data-name="パス 8586" d="M215.79,1.813l2.32,2.32c.28-.28.975-.874,1.814-1.582L217.371,0c-.707.839-1.3,1.533-1.581,1.814" transform="translate(-208.803 0.001)" fill="#fff"/>
      </g>
    </g>
  </g>
</svg>
