<svg id="グループ_7672" data-name="グループ 7672" xmlns="http://www.w3.org/2000/svg" xmlns:xlink="http://www.w3.org/1999/xlink" width="167.5" height="158.856" viewBox="0 0 167.5 158.856">
  <defs>
    <clipPath id="clip-path">
      <rect id="長方形_23255" data-name="長方形 23255" width="167.5" height="158.856" fill="#fff"/>
    </clipPath>
  </defs>
  <g id="グループ_7670" data-name="グループ 7670" clip-path="url(#clip-path)">
    <path id="パス_5596" data-name="パス 5596" d="M172.838,34.082c0,.384-.461.807-1.345.807-.462,0-.884-.192-.884-.768V34s.038-.345.077-.922c0-.422.115-2.19.154-2.843.077-1.5.23-4.727.307-7.877a16.492,16.492,0,0,1-2.613,4.227,27.179,27.179,0,0,1-7.646,6.071.735.735,0,0,1-.653-.615.2.2,0,0,1,.115-.153,27.519,27.519,0,0,0,9.876-10.951h-12.95v1.383c3.535,1.23,5.61,2.5,5.61,4.265,0,.653-.307,1.115-.691,1.115-.268,0-.615-.192-1.038-.768a12.277,12.277,0,0,0-3.881-3.689v5.3c0,.576.115,4.111.115,4.534a8.732,8.732,0,0,0,.038.961c0,.691-.768.922-1.23.922s-.884-.192-.884-.73V34.12a11.742,11.742,0,0,0,.115-1.192c0-.384.154-1.882.154-2.881.038-2.459.115-4.88.192-6.955a22.482,22.482,0,0,1-8.3,9.568.787.787,0,0,1-.653-.577c0-.077,0-.154.077-.191a28.4,28.4,0,0,0,8.338-10.951h-1.422c-1.152,0-4.572.231-5.417.308-.385.038-.768-1.268-.845-1.653,1.421.115,3.765.308,6.994.308h1.114V18.135a15.17,15.17,0,0,0-.269-2.881h.385c2.728,0,2.767.5,2.767.807,0,.269-.269.653-1.268.96V19.9h2.882c.077-.077,1.5-1.768,1.96-1.768.691,0,2.036,1.192,2.612,1.768h6.224V18.021a15.6,15.6,0,0,0-.307-2.844c2.151.038,3.3.154,3.3.884,0,.269-.462.615-1.306.845v3h4.381a10.281,10.281,0,0,1,1.728-1.921.332.332,0,0,1,.231-.115c.154,0,3.112,1.921,3.112,2.575,0,.345-.422.5-.845.5h-8.53c1.422,2.958,5.111,7.493,10.067,8.837a.3.3,0,0,1,.192.308.638.638,0,0,1-.422.615,2.716,2.716,0,0,0-1.692.845c-.038.038-.115.038-.23.038-.691,0-5.494-3.42-8.146-9.26.077,3.3.115,6.3.154,7.916,0,.768.115,2.19.115,2.651a10.916,10.916,0,0,0,.077,1.153ZM166.5,5.8c3.036,3.8,9.837,7.109,15.293,7.454.23,0,.307.231.307.5,0,.23-.077.461-.23.5a2.7,2.7,0,0,0-1.806,1.115c-.154.23-.269.268-.346.268-.845,0-9.26-3.035-13.909-9.336v4.111c0,.884,0,2.036.115,4.8,0,.308.038.845.038,1.229,0,.462-.539.653-.961.653-.154,0-.384.038-.576.038a.57.57,0,0,1-.269-.038.367.367,0,0,1-.308-.422V16.56s.077-.845.115-1.614c.077-1.114.115-2.767.115-4.38,0-1.538.115-3.036.154-3.881-4.188,5.994-14.87,10.067-15.562,10.067-.231,0-.423-.346-.423-.615,0-.154.038-.269.154-.308A35.384,35.384,0,0,0,162.733,5.8h-2.075c-1.537,0-7.915.077-9.644.269a3.662,3.662,0,0,1-.654-1.806c1.883.192,8.607.461,11.259.461h2.5c-.192-2.19-.038-3-.308-4.726,2.921.192,3.267.231,3.267.845,0,.385-.385.691-1.268.961v2.92h8.953c1.421-1.844,1.768-2.267,2-2.267.307,0,3.42,2.075,3.42,2.69a.719.719,0,0,1-.807.653Z" transform="translate(-15.482 0)" fill="#fff"/>
    <path id="パス_5597" data-name="パス 5597" d="M174.444,72.428c1.345,0,2.114.577,2.114,1.345,0,2.037-7.493,2.306-9.337,2.306-5.764,0-10.99-2.651-10.99-6.647,0-3.458,4.111-6.417,8.147-8.415-1.153-.922-1.883-2-1.883-4.419,0-.576.077-1.152.115-1.767.076-.961.307-4.265.307-5.418A2.478,2.478,0,0,0,160.88,46.8a.57.57,0,0,1-.422-.461c0-.231.691-.462,1.307-.462,1.651,0,3.957,1.653,3.957,2.844a1.057,1.057,0,0,1-.038.345,2.071,2.071,0,0,1-.269.5,2.086,2.086,0,0,0-.231.423,39.951,39.951,0,0,0-.653,6.647c0,2.344.653,3.228,1,3.535a1.479,1.479,0,0,0,.461.115c1-.461,2.767-1.192,5.226-2.075a3.34,3.34,0,0,1,1.076-.153c1.152,0,2.344.5,2.344,1.152,0,1.153-1.076,1.307-1.729,1.384-2.267.191-15.178,2.728-15.178,8.683,0,3.689,5.534,4.572,8.761,4.572a19.4,19.4,0,0,0,5.226-.691,8.053,8.053,0,0,1,2.728-.73" transform="translate(-16.474 -4.838)" fill="#fff"/>
    <path id="パス_5598" data-name="パス 5598" d="M182.431,94.352a19.066,19.066,0,0,0-7.109-6.993c-.154-.077-.192-.154-.192-.269,0-.269.385-.576.769-.576,1.075,0,7.838,3.266,9.03,5.264a3.82,3.82,0,0,1,.538,2c0,1.383-.576,2.151-1.229,2.151-.539,0-1.153-.461-1.806-1.575" transform="translate(-18.467 -9.123)" fill="#fff"/>
    <path id="パス_5599" data-name="パス 5599" d="M118.947,14.373c0,12.373-6.11,19.058-12.833,19.058-5.3,0-7.877-4.8-7.877-8.8,0-5.264,3.651-10.874,7.454-15.754a9.553,9.553,0,0,1-2.151.346c-2.728,0-4.5-1.922-4.5-2.69,0-.231.115-.423.346-.423a.95.95,0,0,1,.576.269,4.751,4.751,0,0,0,3.074,1.229,13.2,13.2,0,0,0,4.918-1.075,4.63,4.63,0,0,1,.923-.577,2.314,2.314,0,0,1,.576-.077c1.768,0,2.19.769,2.19,1.23a1,1,0,0,1-.615.845,6.843,6.843,0,0,1-.768.23,4.455,4.455,0,0,0-.807.346c-1.96.846-9.722,8.454-9.722,15.639,0,4.611,3.228,6.839,6.11,6.839a8.823,8.823,0,0,0,3.42-.73c6.609-2.69,8.184-10.26,8.53-16.407v-.423c0-.807-.077-1.537-.077-2.267a8.139,8.139,0,0,0-.806-3.228A1.951,1.951,0,0,1,116.565,7a1.648,1.648,0,0,1,1.5-1.306.788.788,0,0,1,.846.768c.115,1,.076,2.921.307,4.226.807,4.151,3.688,7.34,5.494,7.8.538.077,1,.692,1.153.807a2.847,2.847,0,0,1,.691,1.652.925.925,0,0,1-.922,1c-1.575,0-5.456-3.651-6.686-7.915Z" transform="translate(-10.359 -0.6)" fill="#fff"/>
    <path id="パス_5600" data-name="パス 5600" d="M119.284,72.276c1.344,0,2.114.577,2.114,1.345,0,2.037-7.493,2.306-9.337,2.306-5.764,0-10.99-2.651-10.99-6.647,0-3.458,4.111-6.417,8.147-8.415-1.153-.922-1.883-2-1.883-4.419,0-.576.077-1.152.115-1.767.076-.961.307-4.265.307-5.418a2.478,2.478,0,0,0-2.037-2.613.569.569,0,0,1-.422-.461c0-.231.691-.462,1.307-.462,1.651,0,3.958,1.653,3.958,2.844a1.057,1.057,0,0,1-.038.345,2.071,2.071,0,0,1-.269.5,2.088,2.088,0,0,0-.231.423,39.956,39.956,0,0,0-.653,6.647c0,2.344.653,3.228,1,3.535a1.48,1.48,0,0,0,.461.115c1-.461,2.767-1.192,5.226-2.075a3.341,3.341,0,0,1,1.076-.153c1.152,0,2.344.5,2.344,1.152,0,1.153-1.076,1.307-1.729,1.384-2.267.191-15.178,2.728-15.178,8.683,0,3.689,5.534,4.572,8.761,4.572a19.4,19.4,0,0,0,5.226-.691,8.052,8.052,0,0,1,2.728-.73" transform="translate(-10.657 -4.821)" fill="#fff"/>
    <path id="パス_5601" data-name="パス 5601" d="M93.984,96.7a.335.335,0,0,1,.346-.385,1.421,1.421,0,0,1,.73.308,5.647,5.647,0,0,0,2.958.845,3.329,3.329,0,0,0,1.691-.385c4.188-2.459,8.915-5.187,15.178-5.225,3.035,0,10.029,1.614,10.029,8.261,0,8.491-11.8,11.757-20.634,11.757h-.576a1.32,1.32,0,0,1-1.115-.384.231.231,0,0,1-.038-.154c0-.231.268-.422.73-.461,10.221-.653,19.212-5,19.212-11.143,0-3.228-2.5-6.609-8.107-6.609-5.149,0-8.838,2.69-12.642,5.533-.768.615-1.422,1.422-2.613,1.461-1.729,0-5.149-1.384-5.149-3.42" transform="translate(-9.91 -9.686)" fill="#fff"/>
    <path id="パス_5602" data-name="パス 5602" d="M103.34,140.874c.154-.346.385-.5.577-.5.23,0,.384.154.384.462a1.328,1.328,0,0,1-.115.5,41.183,41.183,0,0,0-3.151,9.875,7.11,7.11,0,0,0,.192,1.421,3.106,3.106,0,0,1,.115.73,1.007,1.007,0,0,1-1,1.115c-1.076,0-2.536-3.266-2.536-8.107,0-3.3.576-6.532,2.191-13.372a12.816,12.816,0,0,0,.422-3.035,6.093,6.093,0,0,0-1.345-3.843.23.23,0,0,1-.038-.153c0-.231.23-.385.538-.385.884,0,3.535,3,3.535,4.764a2.642,2.642,0,0,1-.462,1.268,39.212,39.212,0,0,0-3.189,13.756,11.334,11.334,0,0,0,.423,3.574c1.268-3.343,2.344-5.571,3.457-8.069m13.372-9.26c-1,0-1.921.115-2.843.191a23.69,23.69,0,0,1-2.5.269c-1.806,0-2.229-.807-2.229-1.076a.509.509,0,0,1,.5-.5.713.713,0,0,1,.269.077,1.572,1.572,0,0,0,.883.192,5.753,5.753,0,0,0,.768-.077c.808-.115,1.691-.308,2.69-.461a25.507,25.507,0,0,1,3.8-.385c1.959,0,4.8.423,4.8,1.729,0,.961-2.114.961-2.152.961-1.882,0-3.228,1.191-4.957,2.92a.79.79,0,0,1-.538.269.322.322,0,0,1-.345-.346c0-.5,3.074-3.651,3.112-3.689-.423-.038-.884-.076-1.268-.076m2.613,20.48c-6.916,0-10.183-3.42-10.183-5.572,0-1,.654-2.074,1.038-2.074.231,0,.385.192.385.5a.568.568,0,0,1-.077.345,1.7,1.7,0,0,0-.269.922c0,1.806,3.958,3.689,8.261,3.689a13.425,13.425,0,0,0,1.345-.077,16.123,16.123,0,0,0,1.882-.539,7.46,7.46,0,0,1,1.268-.077c1.614,0,2.113.577,2.113,1.153s-.461,1.729-5.764,1.729" transform="translate(-10.313 -13.242)" fill="#fff"/>
    <path id="パス_5603" data-name="パス 5603" d="M62.8,89.688a141.842,141.842,0,0,0-6.994,14.639,2.3,2.3,0,0,1-1.96,1.268c-.691,0-.96-.653-.96-1.192v-.192a1.377,1.377,0,0,1,.268-1.037c1.461-1.384,5.149-7.608,7.608-12.91a29.02,29.02,0,0,1-5.379,1.229c-1.23,0-3.843-1.46-3.843-2.767,0-.231.115-.384.308-.384a1.6,1.6,0,0,1,.461.153,7.8,7.8,0,0,0,3.958,1c.922,0,1.307,0,5.034-.961a21.108,21.108,0,0,0,.807-2.92,1.465,1.465,0,0,0-1.651-1.5c-.115,0-.269.038-.385.038h-.115c-.345,0-.5-.115-.5-.308,0-.346.73-.73,1.921-.73,1.691,0,3.266.845,3.266,1.729a1.322,1.322,0,0,1-.153.615l-.346.576c-.077.115-.462,1.115-.768,1.883a4.767,4.767,0,0,0,1.115-.691,2.034,2.034,0,0,1,.422-.192,2.107,2.107,0,0,1,.807-.115c.768,0,1.768.115,1.768.808a.92.92,0,0,1-.768.844c-1.614.385-2.844.768-3.574,1Zm5.917,16.176c-.114-1.921-.153-3.919-.153-5.148.077-3.458,1.5-5.034,4.841-7.8a.706.706,0,0,0,.345-.538v-.115c-.077-.5-1.383-.73-2.651-.73a7.029,7.029,0,0,0-1.307.077h-.231c-.384,0-.538-.115-.538-.308,0-.384.653-.845,3.343-.845,4.957,0,6.8,2.114,6.8,2.921,0,.384-.231.691-1,.691a4.54,4.54,0,0,1-1.076-.154,3.393,3.393,0,0,0-1.114-.154,5.967,5.967,0,0,0-5.917,5.687,8.726,8.726,0,0,0,.038.922c.192,2.114.422,3.881.538,5.994a.842.842,0,0,1,.038.307c2.191.808,5.571,2.5,6.532,4.074a2.415,2.415,0,0,1,.269,1.152c0,.231-.038,1.307-.807,1.307a.9.9,0,0,1-.768-.5,14.156,14.156,0,0,0-5.38-4.342c-.691,3.151-4.3,5.188-6.378,5.188-2.037,0-6.109-1.345-6.109-4.111,0-3.189,5.8-3.688,7.185-3.688a17.727,17.727,0,0,1,3.5.422Zm-3.8,1.23c-.961,0-5.61.154-5.61,2.344,0,1.384,3.151,2.305,4.726,2.305a5.122,5.122,0,0,0,4.649-4,11.772,11.772,0,0,0-3.765-.653" transform="translate(-5.435 -45.585)" fill="#fff"/>
    <path id="パス_5604" data-name="パス 5604" d="M74.985,145.671c0-4.841-6.532-4.88-6.608-4.88-4.842,0-9.99,3.189-12.8,6.647a1.546,1.546,0,0,1-1.23.5c-.268,0-1.652-.269-1.652-1.192a1.044,1.044,0,0,1,.5-.806,38.927,38.927,0,0,0,3.343-2.613c6.032-6.148,11.335-13.295,11.335-13.833,0-.077-.038-.154-.231-.154a9.217,9.217,0,0,0-.922.154,13.19,13.19,0,0,0-5,2.575,1.635,1.635,0,0,1-1.075.346c-1.192,0-4.188-1-4.188-2.882,0-.422.154-.653.384-.653a.719.719,0,0,1,.5.269,3.721,3.721,0,0,0,2.767.922,2.647,2.647,0,0,0,.961-.154,50.053,50.053,0,0,1,6.186-1.806,4.62,4.62,0,0,0,.615-.307,1.67,1.67,0,0,1,.884-.269c.922,0,2.651,1.268,2.651,1.844,0,.462-.192.577-1.192,1.076-.385.192-.576.269-5.648,5.917-1.96,2.075-4.227,4.458-5.917,6.378a18.078,18.078,0,0,1,9.875-3.228c4.957,0,8.683,3,8.683,6.533,0,5.533-6.8,9.606-13.064,9.606-2.92,0-7.339-1.115-7.339-4.15,0-2.075,2.459-3,4.611-3,3,0,5.917,1.844,6.224,4.8,4.957-1.5,7.339-4.5,7.339-7.647m-13.948,4.15c-1.268,0-2.881.384-2.881,1.5,0,1.383,2.5,2.536,5.494,2.536h.385a12.014,12.014,0,0,0,1.652-.154c-.115-2.536-2.382-3.881-4.65-3.881" transform="translate(-5.557 -50.269)" fill="#fff"/>
    <path id="パス_5605" data-name="パス 5605" d="M13.756,97.313c-1.845,0-11.6.153-12.987.307A4.676,4.676,0,0,1,0,95.469c3.151.462,14.755.577,16.407.577H28.549c1.268-1.5,2.19-2.575,2.459-2.575a.294.294,0,0,1,.192.077c.5.268,3.266,2.19,3.266,3a.771.771,0,0,1-.768.768Z" transform="translate(0 -9.856)" fill="#fff"/>
    <path id="パス_5606" data-name="パス 5606" d="M26,149.258H10.058v1.268c0,.192.038.884.038,1.037-.077,1-.883,1.076-1.383,1.076-.539,0-1.038-.192-1.038-.884v-.115c0-.038.077-.653.115-1.345.038-1.383.115-3.5.115-4.572l.038-20.711a28.548,28.548,0,0,0-.385-4.573,16.526,16.526,0,0,1,3,1.345H25.5c.808-1,1.268-1.421,1.422-1.421.192,0,2.536,1.382,2.536,2.113,0,.308-.269.691-1.268,1V145.57c0,.461.115,4.265.115,4.687.038.423.038,1.153.038,1.268,0,.308-.269.884-1.5.884-.653,0-.884-.23-.884-.692,0-.154.038-1.421.038-1.806Zm.038-26.359H10.058l-.038,11.335H26.042Zm0,12.45H10.019v12.8H26c0-.845.038-1.729.038-2.037Z" transform="translate(-0.797 -12.692)" fill="#fff"/>
    <path id="パス_5607" data-name="パス 5607" d="M26.244,170.652a5.572,5.572,0,1,1,5.572,5.611,5.576,5.576,0,0,1-5.572-5.611m5.572-3.957a3.977,3.977,0,1,0,4,3.957,3.985,3.985,0,0,0-4-3.957" transform="translate(-2.767 -17.407)" fill="#fff"/>
  </g>
</svg>
