<?xml version="1.0" encoding="utf-8"?>
<!-- Generator: Adobe Illustrator 21.1.0, SVG Export Plug-In . SVG Version: 6.00 Build 0)  -->
<svg version="1.1" id="レイヤー_1" xmlns="http://www.w3.org/2000/svg" xmlns:xlink="http://www.w3.org/1999/xlink" x="0px"
	 y="0px" viewBox="0 0 100 130" style="enable-background:new 0 0 100 130;" xml:space="preserve">
<style type="text/css">
	.st0{fill:#FFE000;}
	.st1{fill:#006FBA;}
</style>
<g>
	<circle class="st0" cx="50" cy="49.8" r="49"/>
	<path class="st1" d="M50,96.3c25.5,0,46.1-21.1,46.1-46.6C96.1,24.3,75.5,3.3,50,3.3S3.9,24.3,3.9,49.8C3.9,75.2,24.5,96.3,50,96.3
		z"/>
	<polygon class="st0" points="24.2,59.2 23.1,66.6 25.6,71.7 27.3,65.9 24.9,59.1 	"/>
	<polygon class="st0" points="26.7,72.8 33,69.2 37.1,69.8 37.3,70.8 34.3,73 	"/>
	<polygon class="st0" points="26.3,74.5 29.5,81.3 34.1,83.9 32.4,78.8 	"/>
	<polygon class="st0" points="19.1,84.9 20.2,79.6 25.8,74.1 23.8,81.3 	"/>
	<polygon class="st0" points="25.5,73 18.2,70.6 13.4,72.2 18.2,74.6 	"/>
	<path class="st0" d="M50,42.4L50,42.4V2.3l-1.4,0.2l-0.2,0.8L32.1,39.5H4.7l-0.5,0.3l11.8,9.8L4.5,58.9l0.1,0.4h27.3l17.4,38.6H50
		V57.1l0,0c4.1,0,7.3-3.3,7.3-7.3C57.3,45.7,54.1,42.4,50,42.4z"/>
	<polygon class="st0" points="16,18.1 20,24.2 15.1,31.7 22.9,28.5 27.4,35.4 27.5,26.6 35.5,23.2 27.4,20.1 27.2,13.3 23.5,18.7 
		17.4,16.3 	"/>
	<path class="st0" d="M81.9,70c0-7.1-5.5-12.8-12.6-12.8c-7.1,0-12.8,5.7-12.8,12.8c0,6.2,4.4,11.4,10.3,12.6v11h5.4V82.5
		C77.8,81.2,81.9,76.1,81.9,70z"/>
	<path class="st0" d="M65.6,49.1c0-7.9-7-15.2-15.6-15.2v6.8c5,0,8.8,4,8.8,8.3H65.6z"/>
	<path class="st0" d="M50,19.6c16.7,0,29.8,13.5,29.8,29.5H67.2c0-9.1-7.5-16.8-17.2-16.8V19.6z"/>
	<path class="st0" d="M50,18c17.5,0,31.4,14.2,31.4,31.1h13.1C94.5,25,74.7,4.9,50,4.9V18z"/>
	<circle class="st1" cx="81.5" cy="18.1" r="8"/>
	<ellipse class="st1" cx="70.4" cy="77.4" rx="2.4" ry="2.1"/>
	<ellipse class="st1" cx="67.7" cy="62.2" rx="2.4" ry="2.1"/>
	<ellipse class="st1" cx="63.1" cy="71.8" rx="2.6" ry="2.3"/>
	<ellipse class="st1" cx="71.3" cy="68.1" rx="1.5" ry="1.4"/>
	<ellipse class="st1" cx="76.7" cy="71.4" rx="1.8" ry="1.6"/>
	<polygon class="st1" points="53.7,42 64.1,31.5 63.6,36.8 68.6,36.6 58.1,47.1 	"/>
	<circle class="st1" cx="50" cy="49.8" r="3.3"/>
	<path class="st1" d="M19.3,113.6c0,4.6-3.8,8.4-8.4,8.4c-1.9,0-3.5-0.6-4.8-1.7v8.9H2.8v-24h3.3v1.7c1.3-1.1,2.9-1.8,4.8-1.8
		C15.6,105.2,19.3,109,19.3,113.6z M11,118.3c2.6,0,4.7-2.1,4.7-4.7c0-2.6-2.1-4.7-4.7-4.7c-2.6,0-4.7,2.1-4.7,4.7
		C6.3,116.2,8.4,118.3,11,118.3z"/>
	<path class="st1" d="M80.8,113.5c0-4.7,3.8-8.5,8.5-8.5c4.7,0,8.5,3.8,8.5,8.5c0,4.7-3.8,8.5-8.5,8.5
		C84.6,121.9,80.8,118.1,80.8,113.5z M89.3,118.2c2.6,0,4.7-2.1,4.7-4.7c0-2.6-2.1-4.7-4.7-4.7c-2.6,0-4.7,2.1-4.7,4.7
		C84.5,116.1,86.7,118.2,89.3,118.2z"/>
	<rect x="20.3" y="105.3" class="st1" width="3.4" height="16.5"/>
	<rect x="20.3" y="100.6" class="st1" width="3.4" height="3.6"/>
	<rect x="76.3" y="105.3" class="st1" width="3.4" height="16.5"/>
	<rect x="76.3" y="100.6" class="st1" width="3.4" height="3.6"/>
	<path class="st1" d="M37.3,115.6c-0.8,1.6-2.4,2.7-4.3,2.7c-2.6,0-4.7-2.1-4.7-4.7c0-2.6,2.1-4.7,4.7-4.7c1.9,0,3.5,1.1,4.2,2.7h4
		c-0.9-3.7-4.2-6.4-8.2-6.4c-4.7,0-8.4,3.8-8.4,8.4c0,4.7,3.8,8.4,8.4,8.4c4,0,7.3-2.7,8.2-6.4H37.3z"/>
	<path class="st1" d="M54.5,115.6c-0.8,1.6-2.4,2.7-4.3,2.7c-2.6,0-4.7-2.1-4.7-4.7c0-2.6,2.1-4.7,4.7-4.7c1.9,0,3.5,1.1,4.2,2.7h4
		c-0.9-3.7-4.2-6.4-8.2-6.4c-4.7,0-8.4,3.8-8.4,8.4c0,4.7,3.8,8.4,8.4,8.4c4,0,7.3-2.7,8.2-6.4H54.5z"/>
	<path class="st1" d="M67.1,105c-1.7,0-3.5,0.7-4.1,1.4v-5.9h-3.4v21.4H63v-9.5c0.6-2.1,2-3.6,3.9-3.6c3.1,0,4,2.7,4.2,3.9v9.3h3.5
		c0,0,0.1-7.8,0.1-9.4C74.7,109.6,71.8,105,67.1,105z"/>
	<path class="st1" d="M9.2,124.5h0.5l0.4,2.6h0.1l0.4-2.6h0.6l0.4,2.6h0.1l0.4-2.6h0.5l-0.6,4h-0.5l-0.5-3h-0.1l-0.5,3H9.8
		L9.2,124.5z"/>
	<path class="st1" d="M14.8,124.5v4h-0.6v-4H14.8z"/>
	<path class="st1" d="M16.8,124.5h0.6v3.6h2.2v0.4h-2.8V124.5z"/>
	<path class="st1" d="M22.7,124.8c0.4,0.3,0.6,0.9,0.6,1.6c0,0.8-0.2,1.3-0.6,1.6c-0.4,0.3-0.8,0.4-1.4,0.4h-0.9v-4h0.9
		C21.9,124.5,22.3,124.6,22.7,124.8z M21.3,128.1c0.3,0,0.6-0.1,0.9-0.3c0.3-0.2,0.4-0.6,0.4-1.3c0-0.7-0.1-1.1-0.4-1.4
		c-0.2-0.2-0.5-0.3-0.8-0.3H21v3.2H21.3z"/>
	<path class="st1" d="M23.7,124.5h0.6v3.6h2.2v0.4h-2.8V124.5z"/>
	<path class="st1" d="M29.1,124.5v4h-0.6v-4H29.1z"/>
	<path class="st1" d="M31,128.5v-4h2.8v0.4h-2.2v1.3h1.7v0.4h-1.7v1.9H31z"/>
	<path class="st1" d="M35.4,126.1h1.8v0.4h-1.8v1.5h2.1v0.4h-2.8v-4h2.6v0.4h-2V126.1z"/>
	<path class="st1" d="M44.6,124.8c0.2,0.2,0.4,0.4,0.4,0.8c0,0.3-0.1,0.5-0.4,0.7c-0.2,0.1-0.3,0.2-0.5,0.3l1,1.9h-0.7l-0.9-1.8
		h-0.8v1.8h-0.6v-4h1.4C43.9,124.5,44.3,124.6,44.6,124.8z M44.1,126c0.1-0.1,0.2-0.3,0.2-0.5c0-0.2-0.1-0.4-0.2-0.5
		c-0.2-0.1-0.4-0.2-0.7-0.2h-0.6v1.4h0.8C43.7,126.2,43.9,126.2,44.1,126z"/>
	<path class="st1" d="M46.4,126.1h1.8v0.4h-1.8v1.5h2.1v0.4h-2.8v-4h2.6v0.4h-2V126.1z"/>
	<path class="st1" d="M51.6,126.6c0.4,0.2,0.6,0.4,0.6,0.8c0,0.3-0.1,0.6-0.4,0.8c-0.3,0.2-0.6,0.3-1.1,0.3c-0.4,0-0.8-0.1-1-0.3
		c-0.3-0.2-0.4-0.5-0.4-0.8v-0.2H50v0.2c0,0.2,0.1,0.4,0.2,0.5c0.1,0.1,0.3,0.2,0.5,0.2c0.3,0,0.5-0.1,0.7-0.2
		c0.2-0.1,0.2-0.3,0.2-0.5c0-0.2-0.1-0.4-0.4-0.5c-0.5-0.2-0.9-0.5-1.3-0.7c-0.3-0.2-0.4-0.4-0.5-0.7c0-0.3,0.1-0.6,0.4-0.8
		c0.3-0.2,0.6-0.3,0.9-0.3c0.4,0,0.7,0.1,0.9,0.2c0.3,0.2,0.4,0.5,0.4,0.9h-0.6c0-0.2,0-0.4-0.2-0.6c-0.1-0.1-0.3-0.1-0.5-0.1
		c-0.2,0-0.3,0-0.5,0.1c-0.2,0.1-0.2,0.3-0.2,0.4c0,0.2,0.1,0.3,0.4,0.5C50.9,126.2,51.2,126.4,51.6,126.6z"/>
	<path class="st1" d="M53.7,126.1h1.8v0.4h-1.8v1.5h2.1v0.4h-2.8v-4h2.6v0.4h-2V126.1z"/>
	<path class="st1" d="M57.3,128.5h-0.7l1.4-4h0.5l1.4,4h-0.7l-0.4-1.2h-1.2L57.3,128.5z M58.3,125.5L58.3,125.5l-0.5,1.4h0.9
		L58.3,125.5z"/>
	<path class="st1" d="M62.9,124.8c0.2,0.2,0.4,0.4,0.4,0.8c0,0.3-0.1,0.5-0.4,0.7c-0.2,0.1-0.3,0.2-0.5,0.3l1,1.9h-0.7l-0.9-1.8
		h-0.8v1.8h-0.6v-4h1.4C62.3,124.5,62.7,124.6,62.9,124.8z M62.5,126c0.1-0.1,0.2-0.3,0.2-0.5c0-0.2-0.1-0.4-0.2-0.5
		c-0.2-0.1-0.4-0.2-0.7-0.2h-0.6v1.4h0.8C62.1,126.2,62.3,126.2,62.5,126z"/>
	<path class="st1" d="M66.3,128.2c-0.3,0.2-0.6,0.3-0.9,0.3c-0.3,0-0.6-0.1-0.9-0.3c-0.5-0.3-0.7-0.9-0.7-1.6c0-0.8,0.2-1.5,0.7-1.8
		c0.3-0.2,0.5-0.3,0.9-0.3c0.3,0,0.6,0.1,0.8,0.2c0.4,0.3,0.6,0.7,0.5,1.2h-0.6c0-0.4-0.1-0.7-0.3-0.9c-0.1-0.1-0.3-0.1-0.4-0.1
		c-0.2,0-0.3,0-0.4,0.1c-0.4,0.3-0.5,0.8-0.5,1.5c0,0.7,0.2,1.1,0.5,1.3c0.1,0.1,0.3,0.2,0.5,0.2c0.2,0,0.3-0.1,0.5-0.2
		c0.2-0.1,0.3-0.5,0.3-0.9h0.7C66.8,127.5,66.6,128,66.3,128.2z"/>
	<path class="st1" d="M67.6,128.5v-4h0.6v1.6h1.5v-1.6h0.6v4h-0.6v-1v-1h-1.5v2H67.6z"/>
	<path class="st1" d="M77,128.2c-0.3,0.2-0.6,0.3-0.9,0.3c-0.3,0-0.6-0.1-0.9-0.3c-0.5-0.3-0.7-0.9-0.7-1.6c0-0.8,0.2-1.5,0.7-1.8
		c0.3-0.2,0.5-0.3,0.9-0.3c0.3,0,0.6,0.1,0.8,0.2c0.4,0.3,0.6,0.7,0.5,1.2h-0.6c0-0.4-0.1-0.7-0.3-0.9c-0.1-0.1-0.3-0.1-0.4-0.1
		c-0.2,0-0.3,0-0.4,0.1c-0.4,0.3-0.5,0.8-0.5,1.5c0,0.7,0.2,1.1,0.5,1.3c0.1,0.1,0.3,0.2,0.5,0.2c0.2,0,0.3-0.1,0.5-0.2
		c0.2-0.1,0.3-0.5,0.3-0.9h0.7C77.5,127.5,77.3,128,77,128.2z"/>
	<path class="st1" d="M78.9,126.1h1.8v0.4h-1.8v1.5h2.1v0.4h-2.8v-4h2.6v0.4h-2V126.1z"/>
	<path class="st1" d="M84.7,124.5v4h-0.8l-1.4-3h0v3h-0.6v-4h0.8l1.4,3h0v-3H84.7z"/>
	<path class="st1" d="M86.6,128.5v-1.8v-1.8h-1.1v-0.4h2.8v0.4h-1.1v3.6H86.6z"/>
	<path class="st1" d="M89.9,126.1h1.8v0.4h-1.8v1.5H92v0.4h-2.8v-4h2.6v0.4h-2V126.1z"/>
	<path class="st1" d="M95.3,124.8c0.2,0.2,0.4,0.4,0.4,0.8c0,0.3-0.1,0.5-0.4,0.7c-0.2,0.1-0.3,0.2-0.5,0.3l1,1.9h-0.7l-0.9-1.8
		h-0.8v1.8h-0.6v-4h1.4C94.6,124.5,95,124.6,95.3,124.8z M94.8,126c0.1-0.1,0.2-0.3,0.2-0.5c0-0.2-0.1-0.4-0.2-0.5
		c-0.2-0.1-0.4-0.2-0.7-0.2h-0.6v1.4h0.8C94.5,126.2,94.6,126.2,94.8,126z"/>
</g>
</svg>
